{"title":"BBC Proms 2011_67 Beethoven's Missa Solemnis","uid":6666186,"size":3710874318,"categoryP":"video","categoryS":"music_videos","magnet":"?xt=urn:btih:e3022d2db035c64530ff5a16d31782efa86bf1da&amp;dn=BBC+Proms+2011_67+Beethoven%5C%27s+Missa+Solemnis&amp;tr=udp%3A%2F%2Ftracker.openbittorrent.com%3A80&amp;tr=udp%3A%2F%2Fopen.demonii.com%3A1337&amp;tr=udp%3A%2F%2Ftracker.coppersurfer.tk%3A6969&amp;tr=udp%3A%2F%2Fexodus.desync.com%3A6969","seeders":0,"leechers":0,"uploader":"Hathor","files":4,"time":1315690442,"description":"Note: This torrent contains both a DVD ISO and an MP4 Video of the concert so I suggest you select whichever you prefer.\n\n\nBBC Proms 2011, Number 67\nBBC4 on 4 September\nThanks to GringoLoco &amp; THE BBC\n\nBeethoven:\nMissa Solemnis (90 mins)\n\nHelena Juntunen: soprano\nSarah Connolly: mezzo-soprano\nPaul Groves: tenor\nMatthew Rose: bass\n\nLondon Philharmonic Choir\nLondon Symphony Chorus\nLondon Symphony Orchestra\n\nSir Colin Davis: conductor\n\nCommentary in English\nFixed English subtitles\n\n***************************\n\nFormat: DVD ISO PAL\nRuntime: 1:39\n\nVideo\nID : 224 (0xE0)\nFormat : MPEG Video\nFormat version : Version 2\nFormat profile : Main@Main\nFormat settings, BVOP : Yes\nFormat settings, Matrix : Default\nBit rate mode : Variable\nBit rate : 3 171 Kbps\nNominal bit rate : 9 544 Kbps\nWidth : 720 pixels\nHeight : 576 pixels\nDisplay aspect ratio : 16:9\nFrame rate : 25.000 fps\nStandard : PAL\nColor space : YUV\nChroma subsampling : 4:2:0\nBit depth : 8 bits\nScan type : Interlaced\nScan order : Top Field First\nCompression mode : Lossy\nBits/(Pixel*Frame) : 0.306\n\nAudio\nID : 192 (0xC0)\nFormat : MPEG Audio\nFormat version : Version 1\nFormat profile : Layer 2\nBit rate mode : Constant\nBit rate : 256 Kbps\nChannel(s) : 2 channels\nSampling rate : 48.0 KHz\nCompression mode : Lossy\n\n*********************************************\n\nFormat: MP4 468p\nRuntime: 1:39\n\nVideo\nID : 1\nFormat : AVC\nFormat/Info : Advanced Video Codec\nFormat profile : &lt;a class=&quot;__cf_email__&quot; href=&quot;/cdn-cgi/l/email-protection&quot; data-cfemail=&quot;bdf0dcd4d3fdf18e938d&quot;&gt;[email&amp;#160;protected]&lt;/a&gt;&lt;script data-cfhash='f9e31' type=&quot;text/javascript&quot;&gt;\n/* &lt;![CDATA[ */!function(){try{var t=&quot;currentScript&quot;in document?document.currentScript:function(){for(var t=document.getElementsByTagName(&quot;script&quot;),e=t.length;e--;)if(t[e].getAttribute(&quot;data-cfhash&quot;))return t[e]}();if(t&amp;&amp;t.previousSibling){var e,r,n,i,c=t.previousSibling,a=c.getAttribute(&quot;data-cfemail&quot;);if(a){for(e=&quot;&quot;,r=parseInt(a.substr(0,2),16),n=2;a.length-n;n+=2)i=parseInt(a.substr(n,2),16)^r,e+=String.fromCharCode(i);e=document.createTextNode(e),c.parentNode.replaceChild(e,c)}t.parentNode.removeChild(t);}}catch(u){}}()/* ]]&gt; */&lt;/script&gt;\nFormat settings, CABAC : Yes\nFormat settings, ReFrames : 4 frames\nCodec ID : avc1\nCodec ID/Info : Advanced Video Coding\nDuration : 1h 39mn\nBit rate mode : Constant\nBit rate : 1 404 Kbps\nWidth : 832 pixels\nHeight : 468 pixels\nDisplay aspect ratio : 16:9\nFrame rate mode : Constant\nFrame rate : 25.000 fps\nStandard : PAL\nColor space : YUV\nChroma subsampling : 4:2:0\nBit depth : 8 bits\nScan type : Progressive\nBits/(Pixel*Frame) : 0.144\nStream size : 995 MiB (93%)\n\nAudio\nID : 2\nFormat : AAC\nFormat/Info : Advanced Audio Codec\nFormat profile : HE-AAC / LC\nCodec ID : 40\nDuration : 1h 39mn\nBit rate mode : Variable\nBit rate : 96.0 Kbps\nChannel(s) : 2 channels\nChannel positions : Front: L R\nSampling rate : 48.0 KHz / 24.0 KHz\nCompression mode : Lossy\nStream size : 67.2 MiB (6%)","torrent":{"xt":"urn:btih:e3022d2db035c64530ff5a16d31782efa86bf1da","amp;dn":"BBC+Proms+2011_67+Beethoven%5C%27s+Missa+Solemnis","amp;tr":["udp%3A%2F%2Ftracker.openbittorrent.com%3A80","udp%3A%2F%2Fopen.demonii.com%3A1337","udp%3A%2F%2Ftracker.coppersurfer.tk%3A6969","udp%3A%2F%2Fexodus.desync.com%3A6969"],"infoHash":"e3022d2db035c64530ff5a16d31782efa86bf1da","infoHashBuffer":{"type":"Buffer","data":[227,2,45,45,176,53,198,69,48,255,90,22,211,23,130,239,168,107,241,218]},"announce":[],"urlList":[]}}